<svg width="46" height="46" viewBox="0 0 46 46" fill="none" xmlns="http://www.w3.org/2000/svg">
<path d="M41.7003 19.0834L39.6359 17.0228C39.3842 16.7719 39.1847 16.4737 39.0487 16.1454C38.9128 15.8171 38.8431 15.4651 38.8438 15.1097V12.6956C38.8423 11.2269 38.2583 9.81869 37.22 8.77995C36.1816 7.74122 34.7736 7.15675 33.3049 7.15475H30.8908C30.1746 7.15283 29.488 6.86895 28.9795 6.36455L26.9171 4.3002C25.8773 3.26309 24.4687 2.68066 23.0001 2.68066C21.5315 2.68066 20.1229 3.26309 19.0831 4.3002L17.0226 6.36455C16.5135 6.86941 15.8264 7.1539 15.1094 7.15664H12.6935C11.2247 7.15864 9.81675 7.74311 8.77838 8.78185C7.74 9.82058 7.15601 11.2288 7.15451 12.6975V15.1097C7.15544 15.4649 7.0861 15.8168 6.95049 16.1452C6.81487 16.4735 6.61566 16.7718 6.36431 17.0228L4.29995 19.0834C3.26284 20.1231 2.68042 21.5318 2.68042 23.0004C2.68042 24.4689 3.26284 25.8776 4.29995 26.9173L6.36431 28.9779C6.616 29.2288 6.81556 29.527 6.9515 29.8553C7.08745 30.1837 7.15708 30.5356 7.1564 30.891V33.3051C7.1579 34.7738 7.74189 36.182 8.78027 37.2208C9.81864 38.2595 11.2266 38.844 12.6954 38.846H15.1094C15.8259 38.8484 16.5125 39.133 17.0207 39.638L19.0831 41.7005C20.1227 42.7381 21.5314 43.3208 23.0001 43.3208C24.4688 43.3208 25.8776 42.7381 26.9171 41.7005L28.9777 39.638C29.4867 39.1332 30.1738 38.8487 30.8908 38.846H33.3067C34.7755 38.844 36.1835 38.2595 37.2218 37.2208C38.2602 36.182 38.8442 34.7738 38.8457 33.3051V30.891C38.845 30.5356 38.9147 30.1837 39.0506 29.8553C39.1866 29.527 39.3861 29.2288 39.6378 28.9779L41.7003 26.9173C42.7374 25.8776 43.3198 24.4689 43.3198 23.0004C43.3198 21.5318 42.7374 20.1231 41.7003 19.0834ZM29.6733 20.2176L22.1116 27.7794C21.9802 27.9113 21.8241 28.016 21.6521 28.0874C21.4802 28.1588 21.2959 28.1956 21.1097 28.1956C20.9235 28.1956 20.7391 28.1588 20.5672 28.0874C20.3953 28.016 20.2391 27.9113 20.1077 27.7794L16.3269 23.9985C16.0764 23.7297 15.9401 23.3742 15.9466 23.0069C15.9531 22.6396 16.1019 22.2892 16.3616 22.0294C16.6214 21.7696 16.9719 21.6208 17.3392 21.6143C17.7065 21.6079 18.062 21.7442 18.3307 21.9946L21.1097 24.7755L27.6695 18.2176C27.9383 17.9671 28.2937 17.8308 28.6611 17.8373C29.0284 17.8437 29.3788 17.9925 29.6386 18.2523C29.8984 18.5121 30.0472 18.8625 30.0536 19.2298C30.0601 19.5972 29.9238 19.9526 29.6733 20.2214V20.2176Z" fill="#17C80E"/>
</svg>
