<svg width="42" height="42" viewBox="0 0 42 42" fill="none" xmlns="http://www.w3.org/2000/svg">
<path d="M35.2311 6.76876C32.4165 3.95443 28.8306 2.03792 24.9268 1.26156C21.023 0.485194 16.9766 0.883856 13.2994 2.40713C9.62212 3.9304 6.47915 6.50988 4.26787 9.81937C2.0566 13.1289 0.876343 17.0197 0.876343 21C0.876343 24.9803 2.0566 28.8711 4.26787 32.1806C6.47915 35.4901 9.62212 38.0696 13.2994 39.5929C16.9766 41.1162 21.023 41.5148 24.9268 40.7385C28.8306 39.9621 32.4165 38.0456 35.2311 35.2313C37.1001 33.3625 38.5827 31.1438 39.5942 28.702C40.6057 26.2602 41.1263 23.643 41.1263 21C41.1263 18.357 40.6057 15.7398 39.5942 13.298C38.5827 10.8562 37.1001 8.63756 35.2311 6.76876ZM28.1874 26.0888C28.331 26.2232 28.4455 26.3857 28.5238 26.5662C28.602 26.7467 28.6424 26.9414 28.6424 27.1381C28.6424 27.3349 28.602 27.5295 28.5238 27.71C28.4455 27.8905 28.331 28.053 28.1874 28.1875C28.0531 28.3207 27.8938 28.4261 27.7186 28.4977C27.5435 28.5692 27.356 28.6055 27.1668 28.6044C26.7897 28.6028 26.4283 28.4531 26.1605 28.1875L20.9999 23.0269L15.9111 28.1875C15.6434 28.4531 15.282 28.6028 14.9049 28.6044C14.7157 28.6055 14.5282 28.5692 14.353 28.4977C14.1779 28.4261 14.0186 28.3207 13.8843 28.1875C13.6165 27.9182 13.4663 27.5538 13.4663 27.1741C13.4663 26.7943 13.6165 26.43 13.8843 26.1606L18.973 21L13.8843 15.9113C13.6488 15.6363 13.5257 15.2825 13.5397 14.9207C13.5537 14.559 13.7036 14.2158 13.9596 13.9598C14.2157 13.7038 14.5588 13.5538 14.9206 13.5398C15.2824 13.5258 15.6361 13.6489 15.9111 13.8844L20.9999 18.9731L26.0886 13.8844C26.2217 13.7466 26.3807 13.6363 26.5563 13.5599C26.732 13.4836 26.9211 13.4425 27.1126 13.4392C27.3042 13.4359 27.4945 13.4703 27.6727 13.5405C27.851 13.6107 28.0136 13.7154 28.1515 13.8484C28.2893 13.9815 28.3995 14.1405 28.4759 14.3162C28.5523 14.4918 28.5933 14.6809 28.5966 14.8724C28.6 15.064 28.5656 15.2543 28.4953 15.4325C28.4251 15.6108 28.3205 15.7735 28.1874 15.9113L23.0268 21L28.1874 26.0888Z" fill="#F21E1E"/>
</svg>
