<svg width="22" height="22" viewBox="0 0 22 22" fill="none" xmlns="http://www.w3.org/2000/svg">
<path fill-rule="evenodd" clip-rule="evenodd" d="M4.95004 1.72859C4.16108 1.72859 3.054 1.91683 2.29961 2.0688C2.21082 2.08667 2.13936 2.15648 2.12375 2.2564C1.97283 3.22295 1.74708 4.87527 1.74708 6.05004C1.74708 7.22482 1.97283 8.87718 2.12375 9.84364C2.13936 9.94363 2.21082 10.0134 2.29961 10.0313C3.054 10.1832 4.16108 10.3715 4.95004 10.3715C5.739 10.3715 6.84608 10.1832 7.60046 10.0313C7.68926 10.0134 7.76071 9.94363 7.77632 9.84364C7.92724 8.87718 8.15301 7.22482 8.15301 6.05004C8.15301 4.87527 7.92724 3.22295 7.77632 2.2564C7.76071 2.15648 7.68926 2.08667 7.60046 2.0688C6.84608 1.91683 5.739 1.72859 4.95004 1.72859ZM1.95107 0.37496C2.70835 0.222411 3.96816 0 4.95004 0C5.93192 0 7.19172 0.222411 7.949 0.37496C8.76564 0.539455 9.37746 1.18891 9.50286 1.99248C9.65356 2.95711 9.90007 4.72798 9.90007 6.05004C9.90007 7.37211 9.65356 9.14294 9.50286 10.1076C9.37746 10.9112 8.76564 11.5606 7.949 11.7251C7.19172 11.8777 5.93192 12.1001 4.95004 12.1001C3.96816 12.1001 2.70835 11.8777 1.95107 11.7251C1.13444 11.5606 0.522647 10.9112 0.397169 10.1076C0.246534 9.14294 0 7.37211 0 6.05004C0 4.72798 0.246534 2.95711 0.397169 1.99248C0.522647 1.18891 1.13444 0.539455 1.95107 0.37496Z" fill="black"/>
<path fill-rule="evenodd" clip-rule="evenodd" d="M17.0499 20.2719C16.261 20.2719 15.1538 20.0836 14.3994 19.9317C14.3106 19.9138 14.2393 19.844 14.2236 19.744C14.0727 18.7776 13.8469 17.1252 13.8469 15.9504C13.8469 14.7756 14.0727 13.1233 14.2236 12.1568C14.2393 12.0568 14.3106 11.9871 14.3994 11.9692C15.1538 11.8173 16.261 11.6289 17.0499 11.6289C17.8388 11.6289 18.946 11.8173 19.7004 11.9692C19.7891 11.9871 19.8605 12.0568 19.8761 12.1568C20.0271 13.1233 20.2529 14.7756 20.2529 15.9504C20.2529 17.1252 20.0271 18.7776 19.8761 19.744C19.8605 19.844 19.7891 19.9138 19.7004 19.9317C18.946 20.0836 17.8388 20.2719 17.0499 20.2719ZM14.0509 21.6255C14.8082 21.7781 16.068 22.0005 17.0499 22.0005C18.0318 22.0005 19.2916 21.7781 20.0488 21.6255C20.8655 21.461 21.4773 20.8116 21.6027 20.008C21.7534 19.0433 21.9999 17.2725 21.9999 15.9504C21.9999 14.6283 21.7534 12.8575 21.6027 11.8928C21.4773 11.0893 20.8655 10.4398 20.0488 10.2754C19.2916 10.1228 18.0318 9.90039 17.0499 9.90039C16.068 9.90039 14.8082 10.1228 14.0509 10.2754C13.2343 10.4398 12.6225 11.0893 12.4971 11.8928C12.3464 12.8575 12.0999 14.6283 12.0999 15.9504C12.0999 17.2725 12.3464 19.0433 12.4971 20.008C12.6225 20.8116 13.2343 21.461 14.0509 21.6255Z" fill="black"/>
<path fill-rule="evenodd" clip-rule="evenodd" d="M4.95004 16.0768C4.1128 16.0768 2.92867 16.276 2.18149 16.4222C2.09817 16.4386 2.04867 16.4933 2.03254 16.5514C1.88932 17.0672 1.74708 17.7092 1.74708 18.1498C1.74708 18.5905 1.88932 19.2325 2.03254 19.7483C2.04867 19.8063 2.09817 19.8611 2.18149 19.8775C2.92867 20.0237 4.1128 20.2229 4.95004 20.2229C5.78728 20.2229 6.9714 20.0237 7.71858 19.8775C7.80191 19.8611 7.85141 19.8063 7.86753 19.7483C8.01076 19.2325 8.15301 18.5905 8.15301 18.1498C8.15301 17.7092 8.01076 17.0672 7.86753 16.5514C7.85141 16.4933 7.80191 16.4386 7.71858 16.4222C6.9714 16.276 5.78728 16.0768 4.95004 16.0768ZM1.85133 14.6773C2.59807 14.5311 3.92884 14.2998 4.95004 14.2998C5.97123 14.2998 7.30201 14.5311 8.04875 14.6773C8.75559 14.8156 9.34633 15.339 9.54884 16.0685C9.69481 16.5941 9.90007 17.4425 9.90007 18.1498C9.90007 18.8571 9.69481 19.7056 9.54884 20.2312C9.34633 20.9607 8.75559 21.4841 8.04875 21.6223C7.30201 21.7685 5.97123 21.9999 4.95004 21.9999C3.92884 21.9999 2.59807 21.7685 1.85133 21.6223C1.14448 21.4841 0.553788 20.9607 0.351222 20.2312C0.205272 19.7056 0 18.8571 0 18.1498C0 17.4425 0.205272 16.5941 0.351222 16.0685C0.553788 15.339 1.14448 14.8156 1.85133 14.6773Z" fill="black"/>
<path fill-rule="evenodd" clip-rule="evenodd" d="M17.0499 5.92313C16.2127 5.92313 15.0285 5.72393 14.2814 5.57767C14.198 5.56137 14.1485 5.50655 14.1323 5.44847C13.9892 4.93266 13.8469 4.29066 13.8469 3.85003C13.8469 3.4094 13.9892 2.7674 14.1323 2.25158C14.1485 2.1935 14.198 2.13869 14.2814 2.12239C15.0285 1.97613 16.2127 1.77693 17.0499 1.77693C17.8871 1.77693 19.0713 1.97613 19.8184 2.12239C19.9018 2.13869 19.9513 2.1935 19.9674 2.25158C20.1106 2.7674 20.2529 3.4094 20.2529 3.85003C20.2529 4.29066 20.1106 4.93266 19.9674 5.44847C19.9513 5.50655 19.9018 5.56137 19.8184 5.57767C19.0713 5.72393 17.8871 5.92313 17.0499 5.92313ZM13.9512 7.32259C14.698 7.46876 16.0288 7.70006 17.0499 7.70006C18.071 7.70006 19.4018 7.46876 20.1486 7.32259C20.8555 7.18423 21.4462 6.66092 21.6487 5.9314C21.7947 5.40574 21.9999 4.55732 21.9999 3.85003C21.9999 3.14273 21.7947 2.29432 21.6487 1.76866C21.4462 1.03913 20.8555 0.515827 20.1486 0.377468C19.4018 0.231299 18.071 0 17.0499 0C16.0288 0 14.698 0.231299 13.9512 0.377468C13.2443 0.515827 12.6536 1.03913 12.4511 1.76866C12.3051 2.29432 12.0999 3.14273 12.0999 3.85003C12.0999 4.55732 12.3051 5.40574 12.4511 5.9314C12.6536 6.66092 13.2443 7.18423 13.9512 7.32259Z" fill="black"/>
</svg>
