<svg width="46" height="46" viewBox="0 0 46 46" fill="none" xmlns="http://www.w3.org/2000/svg">
<path d="M37.0364 8.96348C34.2603 6.18767 30.7235 4.29739 26.8731 3.53165C23.0227 2.76592 19.0317 3.15913 15.4048 4.66155C11.7779 6.16397 8.67797 8.70814 6.49696 11.9723C4.31596 15.2365 3.15186 19.0742 3.15186 22.9999C3.15186 26.9257 4.31596 30.7633 6.49696 34.0275C8.67797 37.2917 11.7779 39.8359 15.4048 41.3383C19.0317 42.8407 23.0227 43.234 26.8731 42.4682C30.7235 41.7025 34.2603 39.8122 37.0364 37.0364C38.8798 35.1932 40.3421 33.0049 41.3398 30.5965C42.3374 28.1881 42.8509 25.6068 42.8509 22.9999C42.8509 20.3931 42.3374 17.8118 41.3398 15.4034C40.3421 12.995 38.8798 10.8067 37.0364 8.96348ZM30.0891 28.019C30.2307 28.1517 30.3437 28.3119 30.4209 28.49C30.4981 28.668 30.5379 28.86 30.5379 29.054C30.5379 29.2481 30.4981 29.4401 30.4209 29.6181C30.3437 29.7961 30.2307 29.9564 30.0891 30.0891C29.9566 30.2205 29.7995 30.3244 29.6267 30.395C29.454 30.4655 29.269 30.5013 29.0824 30.5002C28.7105 30.4987 28.354 30.351 28.0899 30.0891L23 24.9991L17.9809 30.0891C17.7168 30.351 17.3603 30.4987 16.9884 30.5002C16.8018 30.5013 16.6168 30.4655 16.4441 30.395C16.2713 30.3244 16.1142 30.2205 15.9817 30.0891C15.7177 29.8234 15.5694 29.4641 15.5694 29.0895C15.5694 28.7149 15.7177 28.3556 15.9817 28.0899L21.0008 22.9999L15.9817 17.9808C15.7495 17.7096 15.6281 17.3607 15.6419 17.0039C15.6556 16.6471 15.8036 16.3086 16.0561 16.0561C16.3086 15.8035 16.6471 15.6556 17.0039 15.6418C17.3607 15.6281 17.7096 15.7494 17.9809 15.9817L23 21.0008L28.0191 15.9817C28.1503 15.8458 28.3071 15.7371 28.4804 15.6617C28.6536 15.5864 28.8401 15.5459 29.029 15.5426C29.2179 15.5393 29.4057 15.5733 29.5815 15.6425C29.7573 15.7118 29.9177 15.815 30.0536 15.9463C30.1896 16.0775 30.2983 16.2343 30.3736 16.4076C30.449 16.5809 30.4894 16.7673 30.4927 16.9562C30.496 17.1451 30.4621 17.3329 30.3928 17.5087C30.3236 17.6845 30.2203 17.8449 30.0891 17.9808L24.9991 22.9999L30.0891 28.019Z" fill="#F21E1E"/>
</svg>
