<svg width="46" height="46" viewBox="0 0 46 46" fill="none" xmlns="http://www.w3.org/2000/svg">
<path d="M23.1797 36.3806C23.18 33.9167 23.8984 31.5064 25.2471 29.4445C26.5957 27.3825 28.5161 25.7584 30.7733 24.7707C33.0305 23.783 35.5267 23.4747 37.9564 23.8834C40.3861 24.2921 42.644 25.4001 44.4538 27.0719C44.5137 22.7408 44.4778 18.4097 44.346 14.0787C44.2742 11.103 42.5941 8.11574 39.7793 6.63961C38.3328 5.87504 36.8342 5.13922 35.3185 4.44203C29.3295 6.37906 22.3154 8.93422 15.2411 12.0976C14.561 12.3983 13.9783 12.8829 13.5588 13.4969C13.1392 14.1109 12.8995 14.8299 12.8666 15.5728C12.7561 18.9868 12.7219 22.5105 12.7668 25.9946C12.7705 26.0968 12.7412 26.1975 12.6834 26.2818C12.6256 26.3661 12.5423 26.4297 12.4457 26.4632C12.3491 26.4967 12.2443 26.4983 12.1467 26.4678C12.0491 26.4373 11.9638 26.3763 11.9034 26.2938C11.1547 25.3355 10.4234 24.3879 9.70946 23.4512C9.65676 23.3779 9.57843 23.3272 9.49005 23.3091C9.40166 23.2909 9.30969 23.3067 9.23239 23.3532C8.67716 23.6839 8.13181 24.01 7.59634 24.3316C7.29626 24.5113 6.927 24.2714 6.92521 23.9022C6.90724 20.4315 6.99349 16.9519 7.17946 13.5791C7.25763 12.1569 8.14978 10.8173 9.46958 10.1651C16.2546 6.8139 23.4933 4.07636 29.67 2.05039C28.2325 1.48797 26.8031 0.972263 25.4079 0.483513C23.5265 -0.162473 21.4835 -0.162473 19.6022 0.483513C14.9465 2.08992 9.8622 4.18687 5.22985 6.63961C2.41595 8.11574 0.737666 11.103 0.663096 14.0787C0.479814 20.0263 0.479814 25.974 0.663096 31.9216C0.734971 34.8973 2.41595 37.8846 5.22985 39.3607C9.8622 41.8134 14.9465 43.9104 19.6049 45.5159C21.4862 46.1619 23.5292 46.1619 25.4106 45.5159C25.8172 45.3757 26.2278 45.2311 26.6423 45.082C24.4117 42.735 23.1715 39.6185 23.1797 36.3806Z" fill="#7C73F7"/>
<path d="M35.854 26.7617C33.9515 26.7619 32.0917 27.3262 30.5098 28.3834C28.928 29.4406 27.6952 30.9431 26.9673 32.7009C26.2393 34.4587 26.049 36.3929 26.4204 38.2589C26.7917 40.1248 27.708 41.8388 29.0535 43.184C30.3989 44.5292 32.1131 45.4452 33.9791 45.8162C35.8452 46.1872 37.7793 45.9965 39.537 45.2683C41.2947 44.54 42.7969 43.3069 43.8538 41.7249C44.9107 40.1429 45.4747 38.283 45.4745 36.3804C45.4744 35.1171 45.2254 33.8663 44.7419 32.6992C44.2584 31.5322 43.5497 30.4718 42.6564 29.5786C41.763 28.6854 40.7025 27.9769 39.5353 27.4936C38.3682 27.0103 37.1173 26.7616 35.854 26.7617ZM41.3408 34.7884L35.5584 40.86C35.4011 41.0255 35.2119 41.1575 35.0022 41.248C34.7925 41.3385 34.5667 41.3856 34.3384 41.3865H34.3303C34.1033 41.3864 33.8786 41.3407 33.6695 41.2523C33.4604 41.1639 33.2711 41.0345 33.1129 40.8717L30.0447 37.711C29.7314 37.3881 29.5591 36.954 29.5659 36.5041C29.5726 36.0543 29.7578 35.6255 30.0807 35.3122C30.4035 34.9988 30.8377 34.8266 31.2875 34.8333C31.7374 34.84 32.1662 35.0252 32.4795 35.3481L34.3204 37.2429L38.8854 32.4488C39.1992 32.1413 39.6202 31.9675 40.0597 31.9642C40.4991 31.9609 40.9227 32.1283 41.2412 32.431C41.5597 32.7338 41.7483 33.1484 41.7672 33.5874C41.7861 34.0265 41.6339 34.4557 41.3426 34.7848L41.3408 34.7884Z" fill="#7C73F7"/>
</svg>
