<svg
          width="25"
          height="25"
          viewBox="0 0 512 512"
          fill="none"
          xmlns="http://www.w3.org/2000/svg"
        >
          <path
            d="M288 485.333H96C83.2748 485.317 71.0757 480.254 62.0776 471.256C53.0795 462.258 48.0169 450.059 48 437.333V266.667C48.0169 253.942 53.0795 241.742 62.0776 232.744C71.0757 223.746 83.2748 218.684 96 218.667H288C300.725 218.684 312.924 223.746 321.922 232.744C330.921 241.742 335.983 253.942 336 266.667V437.333C335.983 450.059 330.921 462.258 321.922 471.256C312.924 480.254 300.725 485.317 288 485.333ZM96 250.667C91.7583 250.672 87.6919 252.36 84.6925 255.359C81.6932 258.359 80.0056 262.425 80 266.667V437.333C80.0056 441.575 81.6932 445.642 84.6925 448.641C87.6919 451.64 91.7583 453.328 96 453.333H288C292.242 453.328 296.308 451.64 299.307 448.641C302.307 445.642 303.994 441.575 304 437.333V266.667C303.994 262.425 302.307 258.359 299.307 255.359C296.308 252.36 292.242 250.672 288 250.667H96Z"
            fill="white"
          />
          <path
            d="M426.666 448.256C420.049 448.242 413.555 446.467 407.85 443.115L311.936 387.157C309.52 385.748 307.516 383.729 306.124 381.304C304.731 378.878 303.999 376.13 304 373.333V330.667C303.999 327.87 304.731 325.122 306.124 322.696C307.516 320.27 309.52 318.252 311.936 316.843L407.85 260.885C413.524 257.575 419.971 255.819 426.54 255.797C433.109 255.775 439.567 257.486 445.263 260.758C450.959 264.03 455.691 268.748 458.981 274.433C462.27 280.119 464.002 286.572 464 293.141V410.859C463.972 420.757 460.031 430.244 453.038 437.249C446.045 444.254 436.565 448.211 426.666 448.256ZM336 364.139L423.978 415.467C424.782 415.966 425.71 416.23 426.656 416.23C427.602 416.23 428.529 415.966 429.333 415.467C430.154 415.013 430.836 414.345 431.306 413.533C431.776 412.721 432.016 411.797 432 410.859V293.12C432 292.182 431.753 291.26 431.283 290.447C430.813 289.635 430.137 288.961 429.323 288.494C428.509 288.026 427.587 287.782 426.648 287.785C425.71 287.788 424.789 288.039 423.978 288.512L336 339.84V364.139ZM263.296 161.707C259.184 161.716 255.227 160.142 252.245 157.312C238.764 144.759 221.086 137.684 202.666 137.472C184.219 137.577 166.497 144.666 153.066 157.312C149.97 160.114 145.901 161.594 141.728 161.437C137.556 161.279 133.61 159.497 130.733 156.47C127.856 153.443 126.277 149.411 126.332 145.236C126.388 141.061 128.073 137.072 131.029 134.123C150.347 115.726 176.001 105.465 202.677 105.465C229.353 105.465 255.007 115.726 274.325 134.123C276.647 136.326 278.255 139.176 278.94 142.303C279.625 145.431 279.357 148.691 278.169 151.664C276.981 154.637 274.929 157.185 272.277 158.979C269.626 160.774 266.497 161.71 263.296 161.707Z"
            fill="white"
          />
          <path
            d="M303.68 99.0933C299.573 99.0914 295.624 97.5103 292.651 94.6773C268.295 71.717 236.138 58.848 202.667 58.6667C169.237 59.0385 137.149 71.8722 112.683 94.656C111.176 96.1708 109.381 97.3684 107.404 98.1783C105.427 98.9882 103.308 99.394 101.172 99.3717C99.0352 99.3493 96.9249 98.8994 94.9653 98.0483C93.0056 97.1972 91.2362 95.9623 89.7615 94.4163C88.2869 92.8704 87.1367 91.0448 86.379 89.0472C85.6212 87.0496 85.2712 84.9204 85.3496 82.7854C85.428 80.6503 85.9333 78.5526 86.8355 76.6159C87.7377 74.6793 89.0186 72.9429 90.6027 71.5093C120.812 42.725 160.94 26.6687 202.667 26.6687C244.394 26.6687 284.521 42.725 314.731 71.5093C317.047 73.7158 318.648 76.5657 319.328 79.6912C320.008 82.8167 319.736 86.0743 318.546 89.0435C317.357 92.0128 315.305 94.5573 312.655 96.3487C310.005 98.1401 306.879 99.0961 303.68 99.0933Z"
            fill="white"
          />
        </svg>