  <svg width="26" height="26" viewBox="0 0 26 26" fill="none" xmlns="http://www.w3.org/2000/svg">
<path d="M16.8994 15.3959C16.8994 15.3959 17.1779 15.3408 12.4894 15.3408C7.80083 15.3408 4 19.1417 4 23.8304M12.4894 11.7024C9.8102 11.7024 7.6383 9.53043 7.6383 6.85119C7.6383 4.17195 9.8102 2 12.4894 2C15.1685 2 17.3404 4.17195 17.3404 6.85119C17.3404 9.53043 15.1685 11.7024 12.4894 11.7024Z" stroke="white" stroke-width="2.4" stroke-linecap="round" stroke-linejoin="round"/>
<path d="M10.2812 24V19.6364H11.4659V23.0455H13.2301V24H10.2812ZM15.0736 19.6364V24H13.889V19.6364H15.0736ZM17.0083 19.6364L17.9031 22.7131H17.9372L18.8321 19.6364H20.1702L18.7299 24H17.1105L15.6702 19.6364H17.0083ZM20.7705 24V19.6364H23.9154V20.5909H21.9551V21.3409H23.7534V22.2955H21.9551V23.0455H23.9068V24H20.7705Z" fill="white"/>
</svg>