<svg width="26" height="26" viewBox="0 0 26 26" fill="none" xmlns="http://www.w3.org/2000/svg">
<path d="M22.0351 18.9125C22.1209 18.8467 22.1927 18.7644 22.2463 18.6706C22.2999 18.5767 22.3343 18.4731 22.3473 18.3657C22.3604 18.2584 22.3519 18.1496 22.3224 18.0456C22.2928 17.9416 22.2428 17.8445 22.1753 17.7601C22.1078 17.6756 22.0241 17.6055 21.9291 17.5539C21.8341 17.5022 21.7298 17.47 21.6222 17.4592C21.5146 17.4483 21.406 17.4591 21.3026 17.4908C21.1993 17.5225 21.1033 17.5745 21.0202 17.6437L18.6656 19.5271L18.3447 19.0461C18.2216 18.8757 18.0373 18.7597 17.8304 18.7223C17.6236 18.6849 17.4103 18.7292 17.2354 18.8458C17.0605 18.9624 16.9376 19.1422 16.8925 19.3475C16.8474 19.5528 16.8836 19.7676 16.9935 19.9468L17.806 21.1655C17.8685 21.2591 17.9497 21.3387 18.0446 21.3993C18.1395 21.4599 18.2459 21.5 18.3571 21.5173C18.4684 21.5346 18.582 21.5285 18.6907 21.4996C18.7995 21.4706 18.9011 21.4194 18.989 21.3491L22.0351 18.9125Z" fill="black"/>
<path fill-rule="evenodd" clip-rule="evenodd" d="M2.47122 3.27437C2.78433 2.5437 3.30497 1.92096 3.96861 1.48335C4.63225 1.04574 5.40972 0.812483 6.20466 0.8125H16.5417C18.1667 0.8125 19.6349 1.781 20.2751 3.27437L21.9338 7.14472V14.753L22.1492 14.7842C22.6685 14.8601 23.1495 15.1016 23.5206 15.4728C23.8917 15.8439 24.1331 16.325 24.2088 16.8443L24.2755 17.3014C24.295 17.435 24.3475 17.5616 24.4282 17.6698L24.7045 18.0399C25.0182 18.4608 25.1877 18.9716 25.1877 19.4965C25.1877 20.0214 25.0182 20.5323 24.7045 20.9532L24.4282 21.3237C24.3475 21.4319 24.295 21.5585 24.2755 21.6921L24.2088 22.1487C24.1332 22.6681 23.8918 23.1492 23.5207 23.5204C23.1496 23.8916 22.6685 24.133 22.1492 24.2088L21.6921 24.2755C21.5585 24.295 21.4319 24.3475 21.3237 24.4282L20.9532 24.7045C20.5323 25.018 20.0215 25.1874 19.4967 25.1874C18.972 25.1874 18.4612 25.018 18.0403 24.7045L17.6698 24.4282C17.5616 24.3475 17.435 24.295 17.3014 24.2755L16.8443 24.2088C16.325 24.1331 15.844 23.8917 15.4729 23.5206C15.1018 23.1495 14.8604 22.6685 14.7847 22.1492L14.753 21.9338H5.68669C2.99487 21.9334 0.8125 19.7515 0.8125 17.0597V8.125L1.04687 8.12498C1.04687 8.12498 1.28451 8.12494 1.5 8.12494C1.71549 8.12494 2 8.1249 2 8.1249L2.5 8.12486L2.4375 17.0597C2.43761 17.9214 2.77997 18.7477 3.38928 19.3571C3.9986 19.9664 4.82498 20.3087 5.68669 20.3088H13.9449C13.8116 19.9315 13.7733 19.5271 13.8333 19.1314C13.8933 18.7357 14.0498 18.3608 14.289 18.0399L14.5653 17.6698C14.6459 17.5616 14.6982 17.4349 14.7176 17.3014L14.7842 16.8443C14.86 16.325 15.1015 15.8439 15.4727 15.4728C15.8439 15.1017 16.3249 14.8603 16.8443 14.7847L17.3014 14.7176C17.4349 14.6982 17.5616 14.6459 17.6698 14.5653L18.0399 14.289C18.3608 14.0498 18.7357 13.8933 19.1314 13.8333C19.5271 13.7733 19.9315 13.8116 20.3088 13.9449V8.12337L0.8125 8.125V7.14472L2.47122 3.27437ZM6.20466 2.4375C5.22966 2.4375 4.3485 3.01844 3.96459 3.91422L2.85675 6.49919H10.5609V2.43669L6.20466 2.4375ZM12.1855 2.4375V6.49919H19.8896L18.7817 3.91422C18.5938 3.47589 18.2814 3.10234 17.8832 2.83985C17.485 2.57736 17.0186 2.43747 16.5417 2.4375H12.1855ZM19.0113 15.5919C19.1516 15.4874 19.3218 15.4309 19.4967 15.4309C19.6717 15.4309 19.8419 15.4874 19.9822 15.5919L20.3523 15.8677C20.6769 16.1098 21.0567 16.2671 21.4573 16.3256L21.9147 16.3922C22.0878 16.4175 22.2482 16.4979 22.3719 16.6216C22.4956 16.7453 22.576 16.9056 22.6013 17.0787L22.6679 17.5358C22.7264 17.9364 22.8837 18.3162 23.1258 18.6408L23.402 19.0113C23.5066 19.1516 23.563 19.3218 23.563 19.4967C23.563 19.6717 23.5066 19.8419 23.402 19.9822L23.1258 20.3523C22.8837 20.6769 22.7264 21.0567 22.6679 21.4573L22.6013 21.9147C22.576 22.0878 22.4956 22.2482 22.3719 22.3719C22.2482 22.4956 22.0878 22.576 21.9147 22.6013L21.4577 22.6679C21.0571 22.7264 20.6773 22.8838 20.3527 23.1258L19.9822 23.402C19.8419 23.5066 19.6717 23.563 19.4967 23.563C19.3218 23.563 19.1516 23.5066 19.0113 23.402L18.6408 23.1258C18.3162 22.8838 17.9364 22.7264 17.5358 22.6679L17.0788 22.6013C16.9057 22.576 16.7453 22.4956 16.6216 22.3719C16.4979 22.2482 16.4175 22.0878 16.3922 21.9147L16.3256 21.4577C16.2671 21.0571 16.1097 20.6773 15.8677 20.3527L15.5915 19.9822C15.4869 19.8419 15.4305 19.6717 15.4305 19.4967C15.4305 19.3218 15.4869 19.1516 15.5915 19.0113L15.8677 18.6408C16.1097 18.3162 16.2671 17.9364 16.3256 17.5358L16.3922 17.0787C16.4175 16.9056 16.4979 16.7453 16.6216 16.6216C16.7453 16.4979 16.9057 16.4175 17.0788 16.3922L17.5358 16.3256C17.9364 16.2671 18.3162 16.1098 18.6408 15.8677L19.0113 15.5919Z" fill="black"/>
<path d="M5.68665 16.2471C5.47116 16.2471 5.26449 16.3327 5.11212 16.485C4.95975 16.6374 4.87415 16.8441 4.87415 17.0596C4.87415 17.2751 4.95975 17.4817 5.11212 17.6341C5.26449 17.7865 5.47116 17.8721 5.68665 17.8721H7.71749C7.93298 17.8721 8.13964 17.7865 8.29201 17.6341C8.44439 17.4817 8.52999 17.2751 8.52999 17.0596C8.52999 16.8441 8.44439 16.6374 8.29201 16.485C8.13964 16.3327 7.93298 16.2471 7.71749 16.2471H5.68665Z" fill="black"/>
</svg>
