     <svg width="25" height="24" viewBox="0 0 25 24" fill="none" xmlns="http://www.w3.org/2000/svg">
<path d="M23.6711 18.6001C23.6711 19.4251 23.4401 20.2061 23.0331 20.8661C22.8021 21.2621 22.5051 21.6141 22.1641 21.9001C21.3941 22.593 20.3821 23 19.2711 23C17.9291 23 16.7301 22.395 15.9381 21.4491C15.9161 21.4161 15.8831 21.3941 15.8611 21.3611C15.7291 21.2071 15.6081 21.0421 15.5091 20.8661C15.1021 20.2061 14.8711 19.4251 14.8711 18.6001C14.8711 17.2141 15.5091 15.9712 16.5211 15.1682C17.2801 14.5632 18.2371 14.2002 19.2711 14.2002C20.3711 14.2002 21.3611 14.5962 22.1311 15.2672C22.2631 15.3662 22.3841 15.4872 22.4941 15.6082C23.2201 16.4002 23.6711 17.4451 23.6711 18.6001Z" stroke="white" stroke-width="1.8" stroke-miterlimit="10" stroke-linecap="round" stroke-linejoin="round"/>
<path d="M20.9103 18.5781H17.6323" stroke="white" stroke-width="1.8" stroke-miterlimit="10" stroke-linecap="round" stroke-linejoin="round"/>
<path d="M19.271 16.9707V20.2596" stroke="white" stroke-width="1.8" stroke-miterlimit="10" stroke-linecap="round" stroke-linejoin="round"/>
<path d="M1.85815 6.98242L11.5711 12.6033L21.2182 7.01539" stroke="white" stroke-width="1.8" stroke-linecap="round" stroke-linejoin="round"/>
<path d="M11.571 22.5696V12.5928" stroke="white" stroke-width="1.8" stroke-linecap="round" stroke-linejoin="round"/>
<path d="M22.142 8.88685V15.1127C22.142 15.1677 22.142 15.2117 22.131 15.2667C21.361 14.5957 20.371 14.1998 19.271 14.1998C18.237 14.1998 17.28 14.5627 16.521 15.1677C15.509 15.9707 14.871 17.2137 14.871 18.5997C14.871 19.4247 15.102 20.2056 15.509 20.8656C15.608 21.0416 15.729 21.2066 15.861 21.3606L13.848 22.4716C12.594 23.1756 10.548 23.1756 9.294 22.4716L3.42 19.2157C2.089 18.4787 1 16.6307 1 15.1127V8.88685C1 7.36888 2.089 5.52094 3.42 4.78395L9.294 1.52799C10.548 0.824003 12.594 0.824003 13.848 1.52799L19.722 4.78395C21.053 5.52094 22.142 7.36888 22.142 8.88685Z" stroke="white" stroke-width="1.8" stroke-linecap="round" stroke-linejoin="round"/>
</svg>