<svg width="24" height="20" viewBox="0 0 24 20" fill="none" xmlns="http://www.w3.org/2000/svg">
<path d="M20.25 10.35C20.25 8.832 21.482 7.6 23 7.6V6.5C23 2.1 21.9 1 17.5 1H6.5C2.1 1 1 2.1 1 6.5V7.05C2.518 7.05 3.75 8.282 3.75 9.8C3.75 11.318 2.518 12.55 1 12.55V13.1C1 17.5 2.1 18.6 6.5 18.6H17.5C21.9 18.6 23 17.5 23 13.1C21.482 13.1 20.25 11.868 20.25 10.35Z" stroke="black" stroke-width="2" stroke-linecap="round" stroke-linejoin="round"/>
<path d="M8.69995 12.8256L15.3 6.22559" stroke="black" stroke-width="2" stroke-linecap="round" stroke-linejoin="round"/>
<path d="M15.2939 12.8252H15.3037" stroke="black" stroke-width="2" stroke-linecap="round" stroke-linejoin="round"/>
<path d="M8.69385 6.77539H8.70358" stroke="black" stroke-width="2" stroke-linecap="round" stroke-linejoin="round"/>
</svg>
