<svg width="22" height="26" viewBox="0 0 22 26" fill="none" xmlns="http://www.w3.org/2000/svg">
<path d="M14.8994 15.3959C14.8994 15.3959 15.1779 15.3408 10.4894 15.3408C5.80083 15.3408 2 19.1417 2 23.8304M10.4894 11.7024C7.8102 11.7024 5.6383 9.53043 5.6383 6.85119C5.6383 4.17195 7.8102 2 10.4894 2C13.1685 2 15.3404 4.17195 15.3404 6.85119C15.3404 9.53043 13.1685 11.7024 10.4894 11.7024Z" stroke="black" stroke-width="2.4" stroke-linecap="round" stroke-linejoin="round"/>
<path d="M14.6444 22.6021H20.5979C20.8963 22.6021 21.1381 22.3603 21.1381 22.0619C21.1381 21.7636 20.8963 21.5217 20.5979 21.5217H14.6444L16.4438 19.7222C16.4438 19.7222 16.4438 19.7222 16.4438 19.7222C16.6548 19.5112 16.6548 19.1692 16.4438 18.9582C16.2328 18.7473 15.8908 18.7473 15.6799 18.9582L15.8213 19.0996L15.6799 18.9582L12.9582 21.6799L12.9582 21.6799C12.7473 21.8909 12.7473 22.2329 12.9582 22.4439L12.9582 22.4439L15.6799 25.1656C15.8908 25.3766 16.2328 25.3766 16.4438 25.1656C16.6548 24.9546 16.6548 24.6126 16.4438 24.4017L14.6444 22.6021Z" fill="black" stroke="black" stroke-width="0.4"/>
</svg>
