<svg width="26" height="26" viewBox="0 0 26 26" fill="none" xmlns="http://www.w3.org/2000/svg">
<g clip-path="url(#clip0_3776_58)">
<path d="M23.5625 8.125H19.5V9.75H23.5625V14.625H17.875V16.25H20.3125V17.9904C19.5466 18.1881 18.8791 18.6584 18.4351 19.3131C17.9912 19.9678 17.8012 20.762 17.9009 21.5467C18.0006 22.3314 18.383 23.0528 18.9766 23.5758C19.5701 24.0987 20.334 24.3872 21.125 24.3872C21.916 24.3872 22.6799 24.0987 23.2734 23.5758C23.867 23.0528 24.2494 22.3314 24.3491 21.5467C24.4488 20.762 24.2588 19.9678 23.8149 19.3131C23.3709 18.6584 22.7034 18.1881 21.9375 17.9904V16.25H23.5625C23.9933 16.2494 24.4063 16.078 24.7109 15.7734C25.0155 15.4688 25.1869 15.0558 25.1875 14.625V9.75C25.187 9.31918 25.0157 8.90614 24.711 8.6015C24.4064 8.29686 23.9933 8.12549 23.5625 8.125ZM22.75 21.125C22.75 21.4464 22.6547 21.7606 22.4761 22.0278C22.2976 22.295 22.0438 22.5033 21.7469 22.6263C21.4499 22.7493 21.1232 22.7815 20.808 22.7188C20.4928 22.6561 20.2032 22.5013 19.976 22.274C19.7487 22.0468 19.5939 21.7572 19.5312 21.442C19.4685 21.1268 19.5007 20.8001 19.6237 20.5031C19.7467 20.2062 19.955 19.9524 20.2222 19.7739C20.4894 19.5953 20.8036 19.5 21.125 19.5C21.5558 19.5006 21.9688 19.672 22.2734 19.9766C22.578 20.2812 22.7494 20.6942 22.75 21.125Z" fill="black"/>
<path d="M15.4375 4.875H11.375V6.5H15.4375V11.375H9.75001V13H12.1875V17.9904C11.4216 18.1881 10.7541 18.6584 10.3101 19.3131C9.86618 19.9678 9.67624 20.762 9.77591 21.5467C9.87558 22.3314 10.258 23.0528 10.8516 23.5758C11.4451 24.0987 12.209 24.3872 13 24.3872C13.791 24.3872 14.5549 24.0987 15.1484 23.5758C15.742 23.0528 16.1244 22.3314 16.2241 21.5467C16.3238 20.762 16.1338 19.9678 15.6899 19.3131C15.2459 18.6584 14.5784 18.1881 13.8125 17.9904V13H15.4375C15.8683 12.9995 16.2814 12.8281 16.586 12.5235C16.8907 12.2189 17.062 11.8058 17.0625 11.375V6.5C17.062 6.06918 16.8907 5.65614 16.586 5.3515C16.2814 5.04686 15.8683 4.87549 15.4375 4.875ZM14.625 21.125C14.625 21.4464 14.5297 21.7606 14.3511 22.0278C14.1726 22.295 13.9188 22.5033 13.6219 22.6263C13.3249 22.7493 12.9982 22.7815 12.683 22.7188C12.3678 22.6561 12.0782 22.5013 11.851 22.274C11.6237 22.0468 11.4689 21.7572 11.4062 21.442C11.3435 21.1268 11.3757 20.8001 11.4987 20.5031C11.6217 20.2062 11.83 19.9524 12.0972 19.7739C12.3644 19.5953 12.6786 19.5 13 19.5C13.4308 19.5006 13.8438 19.672 14.1484 19.9766C14.453 20.2812 14.6244 20.6942 14.625 21.125Z" fill="black"/>
<path d="M7.3125 1.625H2.4375C2.00666 1.62543 1.59358 1.79677 1.28893 2.10143C0.984273 2.40608 0.81293 2.81916 0.8125 3.25V8.125C0.81293 8.55585 0.984273 8.96892 1.28893 9.27357C1.59358 9.57823 2.00666 9.74957 2.4375 9.75H4.0625V17.9904C3.29659 18.1881 2.6291 18.6584 2.18514 19.3131C1.74118 19.9678 1.55123 20.762 1.6509 21.5467C1.75058 22.3314 2.13302 23.0528 2.72656 23.5758C3.3201 24.0987 4.08397 24.3872 4.875 24.3872C5.66603 24.3872 6.4299 24.0987 7.02344 23.5758C7.61698 23.0528 7.99942 22.3314 8.0991 21.5467C8.19877 20.762 8.00882 19.9678 7.56486 19.3131C7.1209 18.6584 6.45341 18.1881 5.6875 17.9904V9.75H7.3125C7.74334 9.74957 8.15642 9.57823 8.46107 9.27357C8.76573 8.96892 8.93707 8.55585 8.9375 8.125V3.25C8.93707 2.81916 8.76573 2.40608 8.46107 2.10143C8.15642 1.79677 7.74334 1.62543 7.3125 1.625ZM6.5 21.125C6.5 21.4464 6.4047 21.7606 6.22614 22.0278C6.04758 22.295 5.79379 22.5033 5.49686 22.6263C5.19993 22.7493 4.8732 22.7815 4.55798 22.7188C4.24276 22.6561 3.95321 22.5013 3.72595 22.274C3.49869 22.0468 3.34392 21.7572 3.28122 21.442C3.21852 21.1268 3.2507 20.8001 3.3737 20.5031C3.49669 20.2062 3.70497 19.9524 3.9722 19.7739C4.23943 19.5953 4.55361 19.5 4.875 19.5C5.30582 19.5005 5.71886 19.6719 6.0235 19.9765C6.32814 20.2811 6.49951 20.6942 6.5 21.125ZM2.4375 8.125V3.25H7.3125L7.31372 8.125H2.4375Z" fill="black"/>
</g>
<defs>
<clipPath id="clip0_3776_58">
<rect width="26" height="26" fill="white"/>
</clipPath>
</defs>
</svg>
