<svg width="24" height="24" viewBox="0 0 24 24" fill="none" xmlns="http://www.w3.org/2000/svg">
<path d="M20.9375 16.9899V13.625C20.9375 13.194 20.7663 12.7807 20.4616 12.476C20.1568 12.1712 19.7435 12 19.3125 12H12.8125V8.75H14.4375C14.8683 8.74951 15.2814 8.57814 15.586 8.2735C15.8906 7.96886 16.062 7.55582 16.0625 7.125V2.25C16.062 1.81918 15.8906 1.40614 15.586 1.1015C15.2814 0.796858 14.8683 0.625495 14.4375 0.625H9.56251C9.13166 0.62543 8.71859 0.796773 8.41393 1.10143C8.10928 1.40608 7.93794 1.81916 7.93751 2.25V7.125C7.93794 7.55584 8.10928 7.96892 8.41393 8.27357C8.71859 8.57823 9.13166 8.74957 9.56251 8.75H11.1875V12H4.68751C4.25653 12 3.84321 12.1712 3.53846 12.476C3.23371 12.7807 3.06251 13.194 3.06251 13.625V16.9905C2.2966 17.1882 1.6291 17.6585 1.18514 18.3132C0.741184 18.9679 0.551238 19.762 0.650911 20.5468C0.750584 21.3315 1.13303 22.0529 1.72657 22.5758C2.32011 23.0988 3.08398 23.3873 3.87501 23.3873C4.66604 23.3873 5.42991 23.0988 6.02345 22.5758C6.61698 22.0529 6.99943 21.3315 7.0991 20.5468C7.19878 19.762 7.00883 18.9679 6.56487 18.3132C6.12091 17.6585 5.45342 17.1882 4.68751 16.9905V13.625H11.1875V16.9904C10.4216 17.1881 9.7541 17.6584 9.31014 18.3131C8.86618 18.9678 8.67624 19.762 8.77591 20.5467C8.87558 21.3314 9.25803 22.0528 9.85157 22.5758C10.4451 23.0987 11.209 23.3872 12 23.3872C12.791 23.3872 13.5549 23.0987 14.1484 22.5758C14.742 22.0528 15.1244 21.3314 15.2241 20.5467C15.3238 19.762 15.1338 18.9678 14.6899 18.3131C14.2459 17.6584 13.5784 17.1881 12.8125 16.9904V13.625H19.3125V16.9899C18.5466 17.1876 17.8791 17.6579 17.4351 18.3126C16.9912 18.9673 16.8012 19.7615 16.9009 20.5462C17.0006 21.3309 17.383 22.0524 17.9766 22.5753C18.5701 23.0982 19.334 23.3867 20.125 23.3867C20.916 23.3867 21.6799 23.0982 22.2734 22.5753C22.867 22.0524 23.2494 21.3309 23.3491 20.5462C23.4488 19.7615 23.2588 18.9673 22.8149 18.3126C22.3709 17.6579 21.7034 17.1876 20.9375 16.9899ZM9.56251 2.25H14.4375L14.4383 7.125H9.56251V2.25ZM5.50001 20.125C5.50001 20.4464 5.4047 20.7606 5.22615 21.0278C5.04759 21.295 4.7938 21.5033 4.49687 21.6263C4.19994 21.7493 3.87321 21.7815 3.55799 21.7188C3.24277 21.6561 2.95322 21.5013 2.72596 21.274C2.4987 21.0468 2.34393 20.7572 2.28123 20.442C2.21853 20.1268 2.25071 19.8001 2.3737 19.5031C2.4967 19.2062 2.70498 18.9524 2.97221 18.7739C3.23944 18.5953 3.55361 18.5 3.87501 18.5C4.30583 18.5005 4.71887 18.6719 5.02351 18.9765C5.32815 19.2811 5.49951 19.6942 5.50001 20.125ZM13.625 20.125C13.625 20.4464 13.5297 20.7606 13.3511 21.0278C13.1726 21.295 12.9188 21.5033 12.6219 21.6263C12.3249 21.7493 11.9982 21.7815 11.683 21.7188C11.3678 21.6561 11.0782 21.5013 10.851 21.274C10.6237 21.0468 10.4689 20.7572 10.4062 20.442C10.3435 20.1268 10.3757 19.8001 10.4987 19.5031C10.6217 19.2062 10.83 18.9524 11.0972 18.7739C11.3644 18.5953 11.6786 18.5 12 18.5C12.4308 18.5006 12.8438 18.672 13.1484 18.9766C13.453 19.2812 13.6244 19.6942 13.625 20.125ZM20.125 21.75C19.8036 21.75 19.4894 21.6547 19.2222 21.4761C18.955 21.2976 18.7467 21.0438 18.6237 20.7469C18.5007 20.4499 18.4685 20.1232 18.5312 19.808C18.5939 19.4928 18.7487 19.2032 18.976 18.976C19.2032 18.7487 19.4928 18.5939 19.808 18.5312C20.1232 18.4685 20.4499 18.5007 20.7469 18.6237C21.0438 18.7467 21.2976 18.955 21.4761 19.2222C21.6547 19.4894 21.75 19.8036 21.75 20.125C21.7495 20.5558 21.5781 20.9689 21.2735 21.2735C20.9689 21.5781 20.5558 21.7495 20.125 21.75Z" fill="black"/>
</svg>
